<svg width="128" height="128" xmlns="http://www.w3.org/2000/svg" data-name="Layer 1">

 <title>n</title>
 <g>
  <title>Layer 1</title>
  <path id="svg_1" fill="#dd4a48" d="m125.56919,76.6359l-0.04414,-0.0295l-32.46245,-20.1534l-4.44246,-2.758l-11.81463,-7.33475c0.00411,-4.02116 0.009,-7.41224 0.01322,-10.27722q0,-1.79254 0.00445,-3.58062c0.00666,-6.59706 0.10439,-8.604 -1.23057,-15.11221c-1.207,-5.88437 -4.31123,-14.4904 -11.59261,-14.54562c-7.28138,0.05522 -10.38561,8.66124 -11.59261,14.54561c-1.335,6.50821 -1.23723,8.51515 -1.23057,15.11221q0.00334,1.7892 0.00445,3.58062c0.00423,2.865 0.00911,6.25607 0.01322,10.27722l-11.81463,7.33476l-4.44246,2.758l-32.46245,20.1534l-0.04414,0.0295a3.829,3.829 0 0 0 2.79942,6.89623l45.96663,-2.36173q-0.0047,6.1387 -0.01337,13.13776a46.51946,46.51946 0 0 0 0.7459,7.73449l-14.23025,7.76195a2.73717,2.73717 0 0 0 1.54191,5.13013c0.07231,-0.00621 12.48373,0.00515 16.4395,0.00892c0.94977,2.13967 1.99482,4.192 2.94407,5.93933c0.51755,0.95735 1.00843,1.82141 1.43713,2.56109l0.00445,0.00445a5.38646,5.38646 0 0 0 7.86761,0l0.00445,-0.00445c0.4287,-0.73967 0.91958,-1.60374 1.43713,-2.56109c0.94924,-1.74738 1.9943,-3.79966 2.94407,-5.93933c3.95577,-0.00377 16.36718,-0.01513 16.4395,-0.00892a2.73717,2.73717 0 0 0 1.54191,-5.13013l-14.23025,-7.76193a46.51946,46.51946 0 0 0 0.7459,-7.73449q-0.00881,-7.00945 -0.01337,-13.13776l45.96663,2.36173a3.83061,3.83061 0 0 0 2.79942,-6.89623l-0.00001,-0.00002z" class="cls-1"/>
 </g>
</svg>